# xmcd CD database file
#
# Track frame offsets:
#	150
#	15215
#	31970
#	47677
#	62435
#	74647
#	98505
#	109700
#	122442
#	139977
#	157297
#	175997
#	193540
#
# Disc length: 2837 seconds
#
# Revision: 2
# Processed by: cddbd v1.5.2PL0 Copyright (c) Steve Scherf et al.
# Submitted via: CDex 1.70beta2
#
DISCID=aa0b130d
DTITLE=Bullet Lavolta - The Gift
DYEAR=1989
DGENRE=Rock
TTITLE0=X Fire
TTITLE1=Little Tiny Pieces
TTITLE2=Over The Shoulder
TTITLE3=Mother Messiah
TTITLE4=Chalkdust
TTITLE5=Blind To You
TTITLE6=Off Kilter
TTITLE7=Underground Well
TTITLE8=The Gift
TTITLE9=One Room Down
TTITLE10=Birth of Death
TTITLE11=Dead Wrong
TTITLE12=Trapdoor
EXTD=YEAR: 1989
EXTT0=
EXTT1=
EXTT2=
EXTT3=
EXTT4=
EXTT5=
EXTT6=
EXTT7=
EXTT8=
EXTT9=
EXTT10=
EXTT11=
EXTT12=
PLAYORDER=
